M48
METRIC,TZ
T1C0.400
%
G90
G05
T1
X71882Y-95504
X75184Y-105410
X76962Y-83566
X78232Y-105918
X78740Y-97536
X78740Y-99822
X79248Y-101600
X80010Y-94996
X80264Y-102870
X80772Y-97536
X84074Y-86614
X84074Y-102870
X85598Y-113284
X87884Y-84074
X88138Y-95250
X88900Y-85598
X89154Y-92456
X89408Y-118364
X90678Y-76962
X92202Y-97536
X92710Y-84328
X92964Y-110236
X93472Y-94996
X94488Y-89408
X94742Y-85852
X95250Y-76200
X95504Y-115316
X96520Y-98806
X96774Y-79756
X98806Y-87884
X101346Y-85344
X105156Y-88646
X105664Y-109728
X106934Y-104648
X107442Y-96774
X108966Y-90170
X112522Y-88392
X114300Y-94742
T0
M30
