%TF.GenerationSoftware,KiCad,Pcbnew,4.0.7-e2-6376~58~ubuntu16.04.1*%
%TF.CreationDate,2018-02-03T18:41:43+01:00*%
%TF.ProjectId,pin_attiny,70696E5F617474696E792E6B69636164,rev?*%
%TF.FileFunction,Paste,Top*%
%FSLAX46Y46*%
G04 Gerber Fmt 4.6, Leading zero omitted, Abs format (unit mm)*
G04 Created by KiCad (PCBNEW 4.0.7-e2-6376~58~ubuntu16.04.1) date Sat Feb  3 18:41:43 2018*
%MOMM*%
%LPD*%
G01*
G04 APERTURE LIST*
%ADD10C,0.100000*%
%ADD11C,0.150000*%
%ADD12R,2.000000X1.700000*%
%ADD13R,1.700000X2.000000*%
G04 APERTURE END LIST*
D10*
D11*
X116246256Y-97282000D02*
G75*
G03X116246256Y-97282000I-23282256J0D01*
G01*
D12*
X110014000Y-97536000D03*
X114014000Y-97536000D03*
D10*
G36*
X107965792Y-103304120D02*
X108491121Y-101687324D01*
X110393234Y-102305358D01*
X109867905Y-103922154D01*
X107965792Y-103304120D01*
X107965792Y-103304120D01*
G37*
G36*
X111770018Y-104540188D02*
X112295347Y-102923392D01*
X114197460Y-103541426D01*
X113672131Y-105158222D01*
X111770018Y-104540188D01*
X111770018Y-104540188D01*
G37*
G36*
X105449105Y-107657617D02*
X106448339Y-106282288D01*
X108066373Y-107457859D01*
X107067139Y-108833188D01*
X105449105Y-107657617D01*
X105449105Y-107657617D01*
G37*
G36*
X108685173Y-110008759D02*
X109684407Y-108633430D01*
X111302441Y-109809001D01*
X110303207Y-111184330D01*
X108685173Y-110008759D01*
X108685173Y-110008759D01*
G37*
G36*
X101710288Y-111020339D02*
X103085617Y-110021105D01*
X104261188Y-111639139D01*
X102885859Y-112638373D01*
X101710288Y-111020339D01*
X101710288Y-111020339D01*
G37*
G36*
X104061430Y-114256407D02*
X105436759Y-113257173D01*
X106612330Y-114875207D01*
X105237001Y-115874441D01*
X104061430Y-114256407D01*
X104061430Y-114256407D01*
G37*
G36*
X97115324Y-113063121D02*
X98732120Y-112537792D01*
X99350154Y-114439905D01*
X97733358Y-114965234D01*
X97115324Y-113063121D01*
X97115324Y-113063121D01*
G37*
G36*
X98351392Y-116867347D02*
X99968188Y-116342018D01*
X100586222Y-118244131D01*
X98969426Y-118769460D01*
X98351392Y-116867347D01*
X98351392Y-116867347D01*
G37*
D13*
X92964000Y-114586000D03*
X92964000Y-118586000D03*
D10*
G36*
X87195879Y-112537792D02*
X88812675Y-113063121D01*
X88194641Y-114965234D01*
X86577845Y-114439905D01*
X87195879Y-112537792D01*
X87195879Y-112537792D01*
G37*
G36*
X85959811Y-116342018D02*
X87576607Y-116867347D01*
X86958573Y-118769460D01*
X85341777Y-118244131D01*
X85959811Y-116342018D01*
X85959811Y-116342018D01*
G37*
G36*
X82842382Y-110021105D02*
X84217711Y-111020339D01*
X83042140Y-112638373D01*
X81666811Y-111639139D01*
X82842382Y-110021105D01*
X82842382Y-110021105D01*
G37*
G36*
X80491240Y-113257173D02*
X81866569Y-114256407D01*
X80690998Y-115874441D01*
X79315669Y-114875207D01*
X80491240Y-113257173D01*
X80491240Y-113257173D01*
G37*
G36*
X79479661Y-106282288D02*
X80478895Y-107657617D01*
X78860861Y-108833188D01*
X77861627Y-107457859D01*
X79479661Y-106282288D01*
X79479661Y-106282288D01*
G37*
G36*
X76243593Y-108633430D02*
X77242827Y-110008759D01*
X75624793Y-111184330D01*
X74625559Y-109809001D01*
X76243593Y-108633430D01*
X76243593Y-108633430D01*
G37*
G36*
X77436879Y-101687324D02*
X77962208Y-103304120D01*
X76060095Y-103922154D01*
X75534766Y-102305358D01*
X77436879Y-101687324D01*
X77436879Y-101687324D01*
G37*
G36*
X73632653Y-102923392D02*
X74157982Y-104540188D01*
X72255869Y-105158222D01*
X71730540Y-103541426D01*
X73632653Y-102923392D01*
X73632653Y-102923392D01*
G37*
D12*
X75914000Y-97536000D03*
X71914000Y-97536000D03*
D10*
G36*
X77962208Y-91767879D02*
X77436879Y-93384675D01*
X75534766Y-92766641D01*
X76060095Y-91149845D01*
X77962208Y-91767879D01*
X77962208Y-91767879D01*
G37*
G36*
X74157982Y-90531811D02*
X73632653Y-92148607D01*
X71730540Y-91530573D01*
X72255869Y-89913777D01*
X74157982Y-90531811D01*
X74157982Y-90531811D01*
G37*
G36*
X80478895Y-87414382D02*
X79479661Y-88789711D01*
X77861627Y-87614140D01*
X78860861Y-86238811D01*
X80478895Y-87414382D01*
X80478895Y-87414382D01*
G37*
G36*
X77242827Y-85063240D02*
X76243593Y-86438569D01*
X74625559Y-85262998D01*
X75624793Y-83887669D01*
X77242827Y-85063240D01*
X77242827Y-85063240D01*
G37*
G36*
X84217711Y-84051661D02*
X82842382Y-85050895D01*
X81666811Y-83432861D01*
X83042140Y-82433627D01*
X84217711Y-84051661D01*
X84217711Y-84051661D01*
G37*
G36*
X81866569Y-80815593D02*
X80491240Y-81814827D01*
X79315669Y-80196793D01*
X80690998Y-79197559D01*
X81866569Y-80815593D01*
X81866569Y-80815593D01*
G37*
G36*
X88812675Y-82008879D02*
X87195879Y-82534208D01*
X86577845Y-80632095D01*
X88194641Y-80106766D01*
X88812675Y-82008879D01*
X88812675Y-82008879D01*
G37*
G36*
X87576607Y-78204653D02*
X85959811Y-78729982D01*
X85341777Y-76827869D01*
X86958573Y-76302540D01*
X87576607Y-78204653D01*
X87576607Y-78204653D01*
G37*
D13*
X92963999Y-80486000D03*
X92963999Y-76486000D03*
D10*
G36*
X98732120Y-82534208D02*
X97115324Y-82008879D01*
X97733358Y-80106766D01*
X99350154Y-80632095D01*
X98732120Y-82534208D01*
X98732120Y-82534208D01*
G37*
G36*
X99968188Y-78729982D02*
X98351392Y-78204653D01*
X98969426Y-76302540D01*
X100586222Y-76827869D01*
X99968188Y-78729982D01*
X99968188Y-78729982D01*
G37*
G36*
X103085617Y-85050895D02*
X101710288Y-84051661D01*
X102885859Y-82433627D01*
X104261188Y-83432861D01*
X103085617Y-85050895D01*
X103085617Y-85050895D01*
G37*
G36*
X105436759Y-81814827D02*
X104061430Y-80815593D01*
X105237001Y-79197559D01*
X106612330Y-80196793D01*
X105436759Y-81814827D01*
X105436759Y-81814827D01*
G37*
G36*
X106448339Y-88789711D02*
X105449105Y-87414382D01*
X107067139Y-86238811D01*
X108066373Y-87614140D01*
X106448339Y-88789711D01*
X106448339Y-88789711D01*
G37*
G36*
X109684407Y-86438569D02*
X108685173Y-85063240D01*
X110303207Y-83887669D01*
X111302441Y-85262998D01*
X109684407Y-86438569D01*
X109684407Y-86438569D01*
G37*
G36*
X108491121Y-93384675D02*
X107965792Y-91767879D01*
X109867905Y-91149845D01*
X110393234Y-92766641D01*
X108491121Y-93384675D01*
X108491121Y-93384675D01*
G37*
G36*
X112295347Y-92148607D02*
X111770018Y-90531811D01*
X113672131Y-89913777D01*
X114197460Y-91530573D01*
X112295347Y-92148607D01*
X112295347Y-92148607D01*
G37*
M02*
