%TF.GenerationSoftware,KiCad,Pcbnew,4.0.7-e2-6376~58~ubuntu16.04.1*%
%TF.CreationDate,2018-02-03T18:41:43+01:00*%
%TF.ProjectId,pin_attiny,70696E5F617474696E792E6B69636164,rev?*%
%TF.FileFunction,Legend,Bot*%
%FSLAX46Y46*%
G04 Gerber Fmt 4.6, Leading zero omitted, Abs format (unit mm)*
G04 Created by KiCad (PCBNEW 4.0.7-e2-6376~58~ubuntu16.04.1) date Sat Feb  3 18:41:43 2018*
%MOMM*%
%LPD*%
G01*
G04 APERTURE LIST*
%ADD10C,0.100000*%
%ADD11C,0.300000*%
%ADD12C,0.150000*%
%ADD13C,0.120000*%
G04 APERTURE END LIST*
D10*
D11*
X98785428Y-117034571D02*
X97928285Y-117034571D01*
X98356856Y-118534571D02*
X98356856Y-117034571D01*
X96856857Y-118463143D02*
X96999714Y-118534571D01*
X97285428Y-118534571D01*
X97428285Y-118463143D01*
X97499714Y-118320286D01*
X97499714Y-117748857D01*
X97428285Y-117606000D01*
X97285428Y-117534571D01*
X96999714Y-117534571D01*
X96856857Y-117606000D01*
X96785428Y-117748857D01*
X96785428Y-117891714D01*
X97499714Y-118034571D01*
X95499714Y-118463143D02*
X95642571Y-118534571D01*
X95928285Y-118534571D01*
X96071143Y-118463143D01*
X96142571Y-118391714D01*
X96214000Y-118248857D01*
X96214000Y-117820286D01*
X96142571Y-117677429D01*
X96071143Y-117606000D01*
X95928285Y-117534571D01*
X95642571Y-117534571D01*
X95499714Y-117606000D01*
X94856857Y-118534571D02*
X94856857Y-117034571D01*
X94214000Y-118534571D02*
X94214000Y-117748857D01*
X94285429Y-117606000D01*
X94428286Y-117534571D01*
X94642571Y-117534571D01*
X94785429Y-117606000D01*
X94856857Y-117677429D01*
X92999714Y-117748857D02*
X92785428Y-117820286D01*
X92714000Y-117891714D01*
X92642571Y-118034571D01*
X92642571Y-118248857D01*
X92714000Y-118391714D01*
X92785428Y-118463143D01*
X92928286Y-118534571D01*
X93499714Y-118534571D01*
X93499714Y-117034571D01*
X92999714Y-117034571D01*
X92856857Y-117106000D01*
X92785428Y-117177429D01*
X92714000Y-117320286D01*
X92714000Y-117463143D01*
X92785428Y-117606000D01*
X92856857Y-117677429D01*
X92999714Y-117748857D01*
X93499714Y-117748857D01*
X91356857Y-118534571D02*
X91356857Y-117748857D01*
X91428286Y-117606000D01*
X91571143Y-117534571D01*
X91856857Y-117534571D01*
X91999714Y-117606000D01*
X91356857Y-118463143D02*
X91499714Y-118534571D01*
X91856857Y-118534571D01*
X91999714Y-118463143D01*
X92071143Y-118320286D01*
X92071143Y-118177429D01*
X91999714Y-118034571D01*
X91856857Y-117963143D01*
X91499714Y-117963143D01*
X91356857Y-117891714D01*
X89999714Y-118534571D02*
X89999714Y-117034571D01*
X89999714Y-118463143D02*
X90142571Y-118534571D01*
X90428285Y-118534571D01*
X90571143Y-118463143D01*
X90642571Y-118391714D01*
X90714000Y-118248857D01*
X90714000Y-117820286D01*
X90642571Y-117677429D01*
X90571143Y-117606000D01*
X90428285Y-117534571D01*
X90142571Y-117534571D01*
X89999714Y-117606000D01*
X88642571Y-117534571D02*
X88642571Y-118748857D01*
X88714000Y-118891714D01*
X88785428Y-118963143D01*
X88928285Y-119034571D01*
X89142571Y-119034571D01*
X89285428Y-118963143D01*
X88642571Y-118463143D02*
X88785428Y-118534571D01*
X89071142Y-118534571D01*
X89214000Y-118463143D01*
X89285428Y-118391714D01*
X89356857Y-118248857D01*
X89356857Y-117820286D01*
X89285428Y-117677429D01*
X89214000Y-117606000D01*
X89071142Y-117534571D01*
X88785428Y-117534571D01*
X88642571Y-117606000D01*
X87356857Y-118463143D02*
X87499714Y-118534571D01*
X87785428Y-118534571D01*
X87928285Y-118463143D01*
X87999714Y-118320286D01*
X87999714Y-117748857D01*
X87928285Y-117606000D01*
X87785428Y-117534571D01*
X87499714Y-117534571D01*
X87356857Y-117606000D01*
X87285428Y-117748857D01*
X87285428Y-117891714D01*
X87999714Y-118034571D01*
X101892571Y-78402571D02*
X101892571Y-76902571D01*
X101392571Y-77974000D01*
X100892571Y-76902571D01*
X100892571Y-78402571D01*
X99535428Y-78402571D02*
X99535428Y-77616857D01*
X99606857Y-77474000D01*
X99749714Y-77402571D01*
X100035428Y-77402571D01*
X100178285Y-77474000D01*
X99535428Y-78331143D02*
X99678285Y-78402571D01*
X100035428Y-78402571D01*
X100178285Y-78331143D01*
X100249714Y-78188286D01*
X100249714Y-78045429D01*
X100178285Y-77902571D01*
X100035428Y-77831143D01*
X99678285Y-77831143D01*
X99535428Y-77759714D01*
X98821142Y-78402571D02*
X98821142Y-76902571D01*
X98678285Y-77831143D02*
X98249714Y-78402571D01*
X98249714Y-77402571D02*
X98821142Y-77974000D01*
X97035428Y-78331143D02*
X97178285Y-78402571D01*
X97463999Y-78402571D01*
X97606856Y-78331143D01*
X97678285Y-78188286D01*
X97678285Y-77616857D01*
X97606856Y-77474000D01*
X97463999Y-77402571D01*
X97178285Y-77402571D01*
X97035428Y-77474000D01*
X96963999Y-77616857D01*
X96963999Y-77759714D01*
X97678285Y-77902571D01*
X96321142Y-78402571D02*
X96321142Y-77402571D01*
X96321142Y-77688286D02*
X96249714Y-77545429D01*
X96178285Y-77474000D01*
X96035428Y-77402571D01*
X95892571Y-77402571D01*
X94249714Y-78402571D02*
X94249714Y-76902571D01*
X93678286Y-76902571D01*
X93535428Y-76974000D01*
X93464000Y-77045429D01*
X93392571Y-77188286D01*
X93392571Y-77402571D01*
X93464000Y-77545429D01*
X93535428Y-77616857D01*
X93678286Y-77688286D01*
X94249714Y-77688286D01*
X92749714Y-78402571D02*
X92749714Y-77402571D01*
X92749714Y-77688286D02*
X92678286Y-77545429D01*
X92606857Y-77474000D01*
X92464000Y-77402571D01*
X92321143Y-77402571D01*
X91606857Y-78402571D02*
X91749715Y-78331143D01*
X91821143Y-78259714D01*
X91892572Y-78116857D01*
X91892572Y-77688286D01*
X91821143Y-77545429D01*
X91749715Y-77474000D01*
X91606857Y-77402571D01*
X91392572Y-77402571D01*
X91249715Y-77474000D01*
X91178286Y-77545429D01*
X91106857Y-77688286D01*
X91106857Y-78116857D01*
X91178286Y-78259714D01*
X91249715Y-78331143D01*
X91392572Y-78402571D01*
X91606857Y-78402571D01*
X90606857Y-77402571D02*
X90249714Y-78402571D01*
X89892572Y-77402571D02*
X90249714Y-78402571D01*
X90392572Y-78759714D01*
X90464000Y-78831143D01*
X90606857Y-78902571D01*
X88749715Y-78331143D02*
X88892572Y-78402571D01*
X89178286Y-78402571D01*
X89321143Y-78331143D01*
X89392572Y-78188286D01*
X89392572Y-77616857D01*
X89321143Y-77474000D01*
X89178286Y-77402571D01*
X88892572Y-77402571D01*
X88749715Y-77474000D01*
X88678286Y-77616857D01*
X88678286Y-77759714D01*
X89392572Y-77902571D01*
X87392572Y-78331143D02*
X87535429Y-78402571D01*
X87821143Y-78402571D01*
X87964001Y-78331143D01*
X88035429Y-78259714D01*
X88106858Y-78116857D01*
X88106858Y-77688286D01*
X88035429Y-77545429D01*
X87964001Y-77474000D01*
X87821143Y-77402571D01*
X87535429Y-77402571D01*
X87392572Y-77474000D01*
X86964001Y-77402571D02*
X86392572Y-77402571D01*
X86749715Y-76902571D02*
X86749715Y-78188286D01*
X86678287Y-78331143D01*
X86535429Y-78402571D01*
X86392572Y-78402571D01*
X85678286Y-78402571D02*
X85821144Y-78331143D01*
X85892572Y-78259714D01*
X85964001Y-78116857D01*
X85964001Y-77688286D01*
X85892572Y-77545429D01*
X85821144Y-77474000D01*
X85678286Y-77402571D01*
X85464001Y-77402571D01*
X85321144Y-77474000D01*
X85249715Y-77545429D01*
X85178286Y-77688286D01*
X85178286Y-78116857D01*
X85249715Y-78259714D01*
X85321144Y-78331143D01*
X85464001Y-78402571D01*
X85678286Y-78402571D01*
X84606858Y-78331143D02*
X84464001Y-78402571D01*
X84178286Y-78402571D01*
X84035429Y-78331143D01*
X83964001Y-78188286D01*
X83964001Y-78116857D01*
X84035429Y-77974000D01*
X84178286Y-77902571D01*
X84392572Y-77902571D01*
X84535429Y-77831143D01*
X84606858Y-77688286D01*
X84606858Y-77616857D01*
X84535429Y-77474000D01*
X84392572Y-77402571D01*
X84178286Y-77402571D01*
X84035429Y-77474000D01*
X102813143Y-114994571D02*
X102527429Y-115994571D01*
X102241715Y-115280286D01*
X101956000Y-115994571D01*
X101670286Y-114994571D01*
X101241714Y-114994571D02*
X100956000Y-115994571D01*
X100670286Y-115280286D01*
X100384571Y-115994571D01*
X100098857Y-114994571D01*
X99670285Y-114994571D02*
X99384571Y-115994571D01*
X99098857Y-115280286D01*
X98813142Y-115994571D01*
X98527428Y-114994571D01*
X97955999Y-115851714D02*
X97884571Y-115923143D01*
X97955999Y-115994571D01*
X98027428Y-115923143D01*
X97955999Y-115851714D01*
X97955999Y-115994571D01*
X97455999Y-114994571D02*
X96884570Y-114994571D01*
X97241713Y-114494571D02*
X97241713Y-115780286D01*
X97170285Y-115923143D01*
X97027427Y-115994571D01*
X96884570Y-115994571D01*
X95813142Y-115923143D02*
X95955999Y-115994571D01*
X96241713Y-115994571D01*
X96384570Y-115923143D01*
X96455999Y-115780286D01*
X96455999Y-115208857D01*
X96384570Y-115066000D01*
X96241713Y-114994571D01*
X95955999Y-114994571D01*
X95813142Y-115066000D01*
X95741713Y-115208857D01*
X95741713Y-115351714D01*
X96455999Y-115494571D01*
X94455999Y-115923143D02*
X94598856Y-115994571D01*
X94884570Y-115994571D01*
X95027428Y-115923143D01*
X95098856Y-115851714D01*
X95170285Y-115708857D01*
X95170285Y-115280286D01*
X95098856Y-115137429D01*
X95027428Y-115066000D01*
X94884570Y-114994571D01*
X94598856Y-114994571D01*
X94455999Y-115066000D01*
X93813142Y-115994571D02*
X93813142Y-114494571D01*
X93170285Y-115994571D02*
X93170285Y-115208857D01*
X93241714Y-115066000D01*
X93384571Y-114994571D01*
X93598856Y-114994571D01*
X93741714Y-115066000D01*
X93813142Y-115137429D01*
X92670285Y-114994571D02*
X92098856Y-114994571D01*
X92455999Y-114494571D02*
X92455999Y-115780286D01*
X92384571Y-115923143D01*
X92241713Y-115994571D01*
X92098856Y-115994571D01*
X90955999Y-115994571D02*
X90955999Y-115208857D01*
X91027428Y-115066000D01*
X91170285Y-114994571D01*
X91455999Y-114994571D01*
X91598856Y-115066000D01*
X90955999Y-115923143D02*
X91098856Y-115994571D01*
X91455999Y-115994571D01*
X91598856Y-115923143D01*
X91670285Y-115780286D01*
X91670285Y-115637429D01*
X91598856Y-115494571D01*
X91455999Y-115423143D01*
X91098856Y-115423143D01*
X90955999Y-115351714D01*
X90027427Y-115994571D02*
X90170285Y-115923143D01*
X90241713Y-115780286D01*
X90241713Y-114494571D01*
X88884571Y-115923143D02*
X89027428Y-115994571D01*
X89313142Y-115994571D01*
X89455999Y-115923143D01*
X89527428Y-115780286D01*
X89527428Y-115208857D01*
X89455999Y-115066000D01*
X89313142Y-114994571D01*
X89027428Y-114994571D01*
X88884571Y-115066000D01*
X88813142Y-115208857D01*
X88813142Y-115351714D01*
X89527428Y-115494571D01*
X88170285Y-114994571D02*
X88170285Y-115994571D01*
X88170285Y-115137429D02*
X88098857Y-115066000D01*
X87955999Y-114994571D01*
X87741714Y-114994571D01*
X87598857Y-115066000D01*
X87527428Y-115208857D01*
X87527428Y-115994571D01*
X87027428Y-114994571D02*
X86455999Y-114994571D01*
X86813142Y-114494571D02*
X86813142Y-115780286D01*
X86741714Y-115923143D01*
X86598856Y-115994571D01*
X86455999Y-115994571D01*
X86027428Y-115923143D02*
X85884571Y-115994571D01*
X85598856Y-115994571D01*
X85455999Y-115923143D01*
X85384571Y-115780286D01*
X85384571Y-115708857D01*
X85455999Y-115566000D01*
X85598856Y-115494571D01*
X85813142Y-115494571D01*
X85955999Y-115423143D01*
X86027428Y-115280286D01*
X86027428Y-115208857D01*
X85955999Y-115066000D01*
X85813142Y-114994571D01*
X85598856Y-114994571D01*
X85455999Y-115066000D01*
X84741713Y-115851714D02*
X84670285Y-115923143D01*
X84741713Y-115994571D01*
X84813142Y-115923143D01*
X84741713Y-115851714D01*
X84741713Y-115994571D01*
X83455999Y-115923143D02*
X83598856Y-115994571D01*
X83884570Y-115994571D01*
X84027427Y-115923143D01*
X84098856Y-115780286D01*
X84098856Y-115208857D01*
X84027427Y-115066000D01*
X83884570Y-114994571D01*
X83598856Y-114994571D01*
X83455999Y-115066000D01*
X83384570Y-115208857D01*
X83384570Y-115351714D01*
X84098856Y-115494571D01*
X82813142Y-115923143D02*
X82670285Y-115994571D01*
X82384570Y-115994571D01*
X82241713Y-115923143D01*
X82170285Y-115780286D01*
X82170285Y-115708857D01*
X82241713Y-115566000D01*
X82384570Y-115494571D01*
X82598856Y-115494571D01*
X82741713Y-115423143D01*
X82813142Y-115280286D01*
X82813142Y-115208857D01*
X82741713Y-115066000D01*
X82598856Y-114994571D01*
X82384570Y-114994571D01*
X82241713Y-115066000D01*
D12*
X116246256Y-97282000D02*
G75*
G03X116246256Y-97282000I-23282256J0D01*
G01*
D13*
X81474000Y-91126000D02*
X86674000Y-91126000D01*
X81474000Y-96266000D02*
X81474000Y-91126000D01*
X86674000Y-98866000D02*
X86674000Y-91126000D01*
X81474000Y-96266000D02*
X84074000Y-96266000D01*
X84074000Y-96266000D02*
X84074000Y-98866000D01*
X84074000Y-98866000D02*
X86674000Y-98866000D01*
X81474000Y-97536000D02*
X81474000Y-98866000D01*
X81474000Y-98866000D02*
X82804000Y-98866000D01*
X88311385Y-112772160D02*
G75*
G03X89226000Y-112388000I124615J984160D01*
G01*
X99140615Y-112772160D02*
G75*
G02X98226000Y-112388000I-124615J984160D01*
G01*
X89235339Y-112376671D02*
G75*
G02X98226000Y-112388000I4490661J-3711329D01*
G01*
X86976000Y-111238000D02*
G75*
G03X88426000Y-112788000I1500000J-50000D01*
G01*
X100476000Y-111238000D02*
G75*
G02X99026000Y-112788000I-1500000J-50000D01*
G01*
X86976000Y-109188000D02*
X86976000Y-111288000D01*
X100476000Y-109188000D02*
X100476000Y-111288000D01*
X100476000Y-105188000D02*
X100476000Y-103738000D01*
X100476000Y-103738000D02*
X97876000Y-101138000D01*
X97876000Y-101138000D02*
X97876000Y-100338000D01*
X97876000Y-100338000D02*
X89576000Y-100338000D01*
X89576000Y-100338000D02*
X89576000Y-101138000D01*
X89576000Y-101138000D02*
X86976000Y-103738000D01*
X86976000Y-103738000D02*
X86976000Y-105188000D01*
X91274000Y-95766000D02*
X91274000Y-96766000D01*
X89574000Y-96766000D02*
X89574000Y-95766000D01*
X100298000Y-91682000D02*
X100298000Y-97802000D01*
X100298000Y-97802000D02*
X103918000Y-97802000D01*
X103918000Y-97802000D02*
X103918000Y-91682000D01*
X103918000Y-91682000D02*
X100298000Y-91682000D01*
D12*
X91651000Y-89951000D02*
X91651000Y-89901000D01*
X95801000Y-89951000D02*
X95801000Y-89806000D01*
X95801000Y-84801000D02*
X95801000Y-84946000D01*
X91651000Y-84801000D02*
X91651000Y-84946000D01*
X91651000Y-89951000D02*
X95801000Y-89951000D01*
X91651000Y-84801000D02*
X95801000Y-84801000D01*
X91651000Y-89901000D02*
X90251000Y-89901000D01*
X85288285Y-100223143D02*
X85335904Y-100270762D01*
X85478761Y-100318381D01*
X85573999Y-100318381D01*
X85716857Y-100270762D01*
X85812095Y-100175524D01*
X85859714Y-100080286D01*
X85907333Y-99889810D01*
X85907333Y-99746952D01*
X85859714Y-99556476D01*
X85812095Y-99461238D01*
X85716857Y-99366000D01*
X85573999Y-99318381D01*
X85478761Y-99318381D01*
X85335904Y-99366000D01*
X85288285Y-99413619D01*
X84669238Y-99318381D02*
X84478761Y-99318381D01*
X84383523Y-99366000D01*
X84288285Y-99461238D01*
X84240666Y-99651714D01*
X84240666Y-99985048D01*
X84288285Y-100175524D01*
X84383523Y-100270762D01*
X84478761Y-100318381D01*
X84669238Y-100318381D01*
X84764476Y-100270762D01*
X84859714Y-100175524D01*
X84907333Y-99985048D01*
X84907333Y-99651714D01*
X84859714Y-99461238D01*
X84764476Y-99366000D01*
X84669238Y-99318381D01*
X83812095Y-100318381D02*
X83812095Y-99318381D01*
X83240666Y-100318381D01*
X83240666Y-99318381D01*
X82240666Y-100318381D02*
X82812095Y-100318381D01*
X82526381Y-100318381D02*
X82526381Y-99318381D01*
X82621619Y-99461238D01*
X82716857Y-99556476D01*
X82812095Y-99604095D01*
X94511714Y-99116571D02*
X94368857Y-99164190D01*
X94321238Y-99211810D01*
X94273619Y-99307048D01*
X94273619Y-99449905D01*
X94321238Y-99545143D01*
X94368857Y-99592762D01*
X94464095Y-99640381D01*
X94845048Y-99640381D01*
X94845048Y-98640381D01*
X94511714Y-98640381D01*
X94416476Y-98688000D01*
X94368857Y-98735619D01*
X94321238Y-98830857D01*
X94321238Y-98926095D01*
X94368857Y-99021333D01*
X94416476Y-99068952D01*
X94511714Y-99116571D01*
X94845048Y-99116571D01*
X93987905Y-98640381D02*
X93416476Y-98640381D01*
X93702191Y-99640381D02*
X93702191Y-98640381D01*
X92559333Y-99640381D02*
X93130762Y-99640381D01*
X92845048Y-99640381D02*
X92845048Y-98640381D01*
X92940286Y-98783238D01*
X93035524Y-98878476D01*
X93130762Y-98926095D01*
X92531143Y-96099334D02*
X92578762Y-96051715D01*
X92626381Y-95908858D01*
X92626381Y-95813620D01*
X92578762Y-95670762D01*
X92483524Y-95575524D01*
X92388286Y-95527905D01*
X92197810Y-95480286D01*
X92054952Y-95480286D01*
X91864476Y-95527905D01*
X91769238Y-95575524D01*
X91674000Y-95670762D01*
X91626381Y-95813620D01*
X91626381Y-95908858D01*
X91674000Y-96051715D01*
X91721619Y-96099334D01*
X92626381Y-97051715D02*
X92626381Y-96480286D01*
X92626381Y-96766000D02*
X91626381Y-96766000D01*
X91769238Y-96670762D01*
X91864476Y-96575524D01*
X91912095Y-96480286D01*
X99912762Y-93408667D02*
X99960381Y-93551524D01*
X99960381Y-93789620D01*
X99912762Y-93884858D01*
X99865143Y-93932477D01*
X99769905Y-93980096D01*
X99674667Y-93980096D01*
X99579429Y-93932477D01*
X99531810Y-93884858D01*
X99484190Y-93789620D01*
X99436571Y-93599143D01*
X99388952Y-93503905D01*
X99341333Y-93456286D01*
X99246095Y-93408667D01*
X99150857Y-93408667D01*
X99055619Y-93456286D01*
X99008000Y-93503905D01*
X98960381Y-93599143D01*
X98960381Y-93837239D01*
X99008000Y-93980096D01*
X98960381Y-94313429D02*
X99960381Y-94551524D01*
X99246095Y-94742001D01*
X99960381Y-94932477D01*
X98960381Y-95170572D01*
X99960381Y-96075334D02*
X99960381Y-95503905D01*
X99960381Y-95789619D02*
X98960381Y-95789619D01*
X99103238Y-95694381D01*
X99198476Y-95599143D01*
X99246095Y-95503905D01*
X94487905Y-90328381D02*
X94487905Y-91137905D01*
X94440286Y-91233143D01*
X94392667Y-91280762D01*
X94297429Y-91328381D01*
X94106952Y-91328381D01*
X94011714Y-91280762D01*
X93964095Y-91233143D01*
X93916476Y-91137905D01*
X93916476Y-90328381D01*
X92916476Y-91328381D02*
X93487905Y-91328381D01*
X93202191Y-91328381D02*
X93202191Y-90328381D01*
X93297429Y-90471238D01*
X93392667Y-90566476D01*
X93487905Y-90614095D01*
M02*
